<svg xmlns="http://www.w3.org/2000/svg" xml:space="preserve" viewBox="0 0 200 200" width="32" height="32"><path d="M88.418 154.03c42.752-3.06 43.023-3.063 43.023-3.063l-.018 43.252-43.208 2.927z" style="fill:#4a8f00;fill-opacity:1;stroke-width:2.36848"/><path d="M88.153 113.895c0 18.622.08 28.79.067 33.605-.013 4.814 0 4.915 0 4.915l43.177-2.947-.036-19.848-27.098.589z" style="fill:#4a8f00;stroke-width:2.37873"/><path d="m105.568 86.385.027 42.105 44.804-.497V86.58ZM42.76 68.449l.13 43.296 43.873.352-.01-43.2zM88.23 67.624l-.066-43.003 46.062.045.035 43.114z" style="fill:#4a8f00;fill-opacity:1;stroke-width:2.36848"/><path d="m136.565 69.324 15.282 15.308.08 27.66h25.514v-43.23Z" style="fill:#4a8f00;fill-opacity:1;stroke-width:2.36848"/><path d="M66.724 135.504 86.54 154.1l1.85.045 42.874-3.12.027-1.544-43.64 2.938-.98-.591-19.826-18.466z" style="fill:#000;fill-opacity:1;stroke-width:2.36848"/><path d="m86.635 197.078-19.757-18.972.007-42.515L86.661 153.9zM86.726 151.976l-19.732-18.47-.03-19.874 19.734.08zM40.945 111.56 22.157 93.11l-.1-45.335 19.28 20.502ZM65.529 46.484l-17.47-17.498.102 17.444ZM88.364 69.538l15.925 15.993-.027 42.738L88.348 112.3zM66.798 46.02l20.086 20.919-.148-43.668L66.863 3.359Z" style="fill:#85ff00;fill-opacity:1;stroke-width:2.36848"/><path d="m65.489 44.633-.02-15.864-15.637.16ZM23.76 47.668l18.796 19.421 44.174.682-20.454-20.36zM89.586 68.78l15.958 15.904 44.767.419-16.126-15.839zM135.842 47.797l-.036 19.986 41.517-.185-18.826-19.714zM69.05 3.357l19.492 19.352 45.566.361-20.583-19.796Z" style="fill:#d3faa8;fill-opacity:1;stroke-width:2.36848"/><path d="m42.919 111.736-.02 2.007 22.356.018v64.449L85.7 198.654l13.706-.845 33.757-2.093-.156-65.944h18.972v-15.806l27.026-.183.018-46.426-19.59-21.02-23.444.053V22.446l-20.93-20.93H65.125v25.677H46.283v18.946H20.585v48.435L40.8 113.67l.167-2.147-18.791-18.411-.102-45.38 26.238-.063-.275-18.671 18.835-.243V3.379l46.717-.21 20.594 20.072.054 24.578 24.267.01 18.874 19.835v44.613h-26.988v15.698l-19.142.197v66.048l-44.591 2.877-19.725-19.049v-66.205z" style="fill:#000;fill-opacity:1;stroke-width:2.36848"/><path d="M40.772 111.393c1.97.222 2.119.333 2.119.333l.268 2.017-2.386-.071zM66.863 3.35 88.09 24.69l46.098-.019v-1.633l-45.62-.333L68.974 3.231Z" style="fill:#000;fill-opacity:1;stroke-width:2.36848"/><path d="m86.714 23.11 1.963 1.449-.248 172.742-1.727-.092z" style="fill:#000;fill-opacity:1;stroke-width:2.36848"/><path d="m47.933 28.885 57.145 57.496 46.798.293-.002-2.042-16.08-16.08.053-20.867-1.619-.027-.027 21.588L150.29 85.1l-44.758-.401L49.773 28.94z" style="fill:#000;fill-opacity:1;stroke-width:2.36848"/><path d="M21.908 47.62 41.35 68.395l2.604.091 42.72.458 90.776.186.104-1.48-134.818-.387-19.053-19.728Z" style="fill:#000;fill-opacity:1;stroke-width:2.36848"/><path d="m41.225 68.15-.41 44.22 2.145.131V68.205ZM64.827 111.819l23.472.072 15.87 16.178V85.023l1.535.887v42.56l25.57-.286-.009 1.461-27.015.787-16.228-16.58-22.834-.147zM150.36 86.644l.028 26.46 1.619.081-.063-.962-.08-25.552zM43.825 47.694l23-.009.028-19.318h-1.425v18.06H43.78Z" style="fill:#000;fill-opacity:1;stroke-width:2.36848"/></svg>